<svg id="Layer_1" data-name="Layer 1" xmlns="http://www.w3.org/2000/svg" viewBox="0 0 148 35"><defs><style>.cls-1{fill:#ec1e24;}.cls-2{font-size:9.35px;font-family:SegoeUIBlack, Segoe UI;letter-spacing:0.28em;}.cls-2,.cls-3,.cls-4{fill:#fff;}.cls-4{font-size:4.72px;font-family:Tahoma;letter-spacing:0.36em;}.cls-5{letter-spacing:0.36em;}.cls-6{letter-spacing:0.34em;}</style></defs><path class="cls-1" d="M145.73,28.14H111.17a1.54,1.54,0,0,1-1.54-1.54V20a1.54,1.54,0,0,1,1.54-1.54h34.56A1.55,1.55,0,0,1,147.28,20V26.6A1.55,1.55,0,0,1,145.73,28.14Z"/><text class="cls-2" transform="translate(114.04 26.53) scale(1.27 1)">ERP</text><polygon class="cls-3" points="54.84 13.44 56.45 11.96 57.86 12.87 56.21 14.71 54.84 13.44"/><polygon class="cls-3" points="57.13 11.34 58.74 9.87 60.11 10.36 58.47 12.19 57.13 11.34"/><polygon class="cls-3" points="59.79 8.91 61.26 7.56 62.51 7.67 61.01 9.35 59.79 8.91"/><polygon class="cls-3" points="62.27 6.63 64.04 5.02 65.04 4.84 63.35 6.73 62.27 6.63"/><polyline class="cls-3" points="67.78 1.91 65.83 3.95 65.06 4.08"/><polygon class="cls-3" points="58.76 13.46 56.99 15.43 58.53 16.6 60.25 14.42 58.76 13.46"/><polygon class="cls-3" points="66.71 4.55 64.67 6.84 65.66 6.93 67.47 4.42 66.71 4.55"/><polygon class="cls-3" points="63.82 7.79 62.08 9.74 63.31 10.19 64.96 7.89 63.82 7.79"/><polygon class="cls-3" points="61.19 10.74 59.38 12.76 60.8 13.65 62.55 11.23 61.19 10.74"/><polyline class="cls-3" points="70.08 0.82 68.08 3.58 67.5 3.68 70.08 0.79"/><polygon class="cls-3" points="52.64 11.42 54.12 10.46 55.52 11.36 54.03 12.69 52.64 11.42"/><polyline class="cls-3" points="45.89 5.14 48.19 6.63 47.49 6.67 45.83 5.14"/><polygon class="cls-3" points="50.48 9.42 51.8 8.96 53.25 9.9 51.89 10.72 50.48 9.42"/><polygon class="cls-3" points="54.91 9.95 56.35 9.01 57.65 9.47 56.2 10.76 54.91 9.95"/><polygon class="cls-3" points="52.79 8.61 54.02 8.18 55.31 8.64 54.05 9.41 52.79 8.61"/><polygon class="cls-3" points="55.94 7.51 56.92 7.16 57.63 7.23 56.71 7.79 55.94 7.51"/><polygon class="cls-3" points="57.69 8.14 58.92 7.34 59.94 7.44 58.72 8.52 57.69 8.14"/><polygon class="cls-3" points="60.3 6.46 61.95 5.38 62.32 5.32 60.97 6.52 60.3 6.46"/><polygon class="cls-3" points="50.5 8.12 49.49 8.51 48.41 7.51 49.43 7.43 50.5 8.12"/><polygon class="cls-3" points="52.11 7.49 51.43 7.76 50.75 7.33 51.48 7.27 52.11 7.49"/><line class="cls-3" x1="42.44" y1="4.07" x2="42.93" y2="4.16"/><polygon class="cls-3" points="49.29 9.84 47.99 10.29 49.62 12.11 50.94 11.3 49.29 9.84"/><polygon class="cls-3" points="51.73 12.01 50.34 12.91 51.86 14.62 53.26 13.38 51.73 12.01"/><polyline class="cls-3" points="42.45 4.07 40.39 2.03 42.93 4.16"/><polygon class="cls-3" points="49.36 13.54 48.04 14.4 49.66 16.57 51.01 15.38 49.36 13.54"/><polyline class="cls-3" points="37.93 0.82 40.57 3.76 40.05 3.67 37.93 0.82"/><polygon class="cls-3" points="46.81 10.71 45.61 11.13 47.36 13.49 48.62 12.72 46.81 10.71"/><polygon class="cls-3" points="44.97 10.28 46.05 9.86 44.24 7.84 43.22 7.92 44.97 10.28"/><polygon class="cls-3" points="47.21 9.41 48.33 8.97 46.83 7.63 45.7 7.72 47.21 9.41"/><polygon class="cls-3" points="44.9 6.82 45.85 6.76 43.94 5.05 43.29 5.02 44.9 6.82"/><polygon class="cls-3" points="42.5 6.96 43.4 6.91 41.64 4.94 40.98 4.91 42.5 6.96"/><path class="cls-3" d="M13.53,21.66a2.85,2.85,0,0,1-.2,1.08,3.06,3.06,0,0,1-.53.84,3.33,3.33,0,0,1-.77.62,5.1,5.1,0,0,1-.92.42,4.85,4.85,0,0,1-1,.25,6.06,6.06,0,0,1-.92.07l4.85,3.19H10.49L5.65,24.94H4V23.17H9.23A3.26,3.26,0,0,0,10,23a2,2,0,0,0,.63-.3,1.35,1.35,0,0,0,.4-.46,1.23,1.23,0,0,0,.15-.61V20.54a.46.46,0,0,0-.05-.23A.33.33,0,0,0,11,20.2a.43.43,0,0,0-.16-.05H3.05v8H.72V19.27a.73.73,0,0,1,.09-.35,1,1,0,0,1,.25-.28,1.1,1.1,0,0,1,.37-.2,1.73,1.73,0,0,1,.47-.06h8.81a3.65,3.65,0,0,1,1.32.21,2.68,2.68,0,0,1,.87.54,2,2,0,0,1,.48.7,1.88,1.88,0,0,1,.15.7Z"/><path class="cls-3" d="M27.41,28.12H17V18.36H27.41v1.77H19.34s0,5.93,0,6.22h8.05Zm0-4h-7.1V22.35h7.1Z"/><path class="cls-3" d="M57.63,28.13H47.26V18.38H57.63v1.77H49.56s0,5.93,0,6.21h8.05Zm0-4h-7.1V22.36h7.1Z"/><path class="cls-3" d="M43.74,28.13H41.89l-8.63-6.87v6.87H30.93V18.38h1.82l8.66,6.87V18.38h2.33Z"/><path class="cls-3" d="M73.84,25.26a2.35,2.35,0,0,1-.18.94,2.43,2.43,0,0,1-.46.74,2.78,2.78,0,0,1-.67.55,4,4,0,0,1-.79.36,4.3,4.3,0,0,1-.84.21,4.56,4.56,0,0,1-.8.07h-9V26.36h9a1.61,1.61,0,0,0,1-.3,1,1,0,0,0,.37-.8,1,1,0,0,0-.1-.45.93.93,0,0,0-.28-.35,1.23,1.23,0,0,0-.44-.23,1.83,1.83,0,0,0-.59-.08H64.76A5.53,5.53,0,0,1,63.54,24a4,4,0,0,1-1.21-.49,3,3,0,0,1-.93-.89A2.43,2.43,0,0,1,61,21.26a2.37,2.37,0,0,1,.37-1.34,3,3,0,0,1,.93-.89,4,4,0,0,1,1.21-.5,5.49,5.49,0,0,1,1.22-.15h7.91v1.77H64.76a1.58,1.58,0,0,0-1,.3,1,1,0,0,0-.37.81,1,1,0,0,0,.37.81,1.64,1.64,0,0,0,1,.29h5.36a5.72,5.72,0,0,1,.79.08,5.2,5.2,0,0,1,.84.22,4.42,4.42,0,0,1,.79.38,2.93,2.93,0,0,1,.67.55,2.74,2.74,0,0,1,.46.73A2.54,2.54,0,0,1,73.84,25.26Z"/><path class="cls-3" d="M90.07,25.26a2.54,2.54,0,0,1-.17.94,2.64,2.64,0,0,1-.46.74,3,3,0,0,1-.67.55,4.09,4.09,0,0,1-.8.36,4,4,0,0,1-.83.21,4.64,4.64,0,0,1-.8.07h-9V26.36h9a1.63,1.63,0,0,0,1-.3,1.05,1.05,0,0,0,.27-1.25,1.17,1.17,0,0,0-.28-.35,1.2,1.2,0,0,0-.45-.23,1.77,1.77,0,0,0-.58-.08H81A5.45,5.45,0,0,1,79.78,24a3.9,3.9,0,0,1-1.21-.49,3,3,0,0,1-.93-.89,2.35,2.35,0,0,1-.37-1.35,2.3,2.3,0,0,1,.37-1.34,3,3,0,0,1,.93-.89,3.92,3.92,0,0,1,1.21-.5A5.4,5.4,0,0,1,81,18.38H88.9v1.77H81a1.6,1.6,0,0,0-1,.3,1,1,0,0,0-.37.81,1,1,0,0,0,.37.81,1.66,1.66,0,0,0,1,.29h5.36a5.85,5.85,0,0,1,.8.08,5.2,5.2,0,0,1,.84.22,4.78,4.78,0,0,1,.79.38,2.69,2.69,0,0,1,.66.55,2.32,2.32,0,0,1,.46.73A2.54,2.54,0,0,1,90.07,25.26Z"/><path class="cls-3" d="M100.38,18.46H98.64l-7,9.66H94l1.84-2.48,1-1.41,2.59-3.47c.3.48,2.48,3.47,2.48,3.47H98.72l-1,1.41h5.26l1.82,2.48h2.48Z"/><text class="cls-4" transform="translate(93.55 33.29)">I<tspan class="cls-5" x="3.45" y="0">nteg</tspan><tspan class="cls-6" x="19.59" y="0">r</tspan><tspan class="cls-5" x="22.92" y="0">ated ERP</tspan></text></svg>